<svg width="2790" height="108" xmlns="http://www.w3.org/2000/svg" xmlns:xlink="http://www.w3.org/1999/xlink" overflow="hidden"><defs><clipPath id="clip0"><rect x="359" y="1286" width="2790" height="108"/></clipPath><clipPath id="clip1"><rect x="372" y="1300" width="63" height="60"/></clipPath><clipPath id="clip2"><rect x="372" y="1300" width="63" height="60"/></clipPath><clipPath id="clip3"><rect x="372" y="1300" width="63" height="60"/></clipPath><clipPath id="clip4"><rect x="3072" y="1316" width="37" height="37"/></clipPath><clipPath id="clip5"><rect x="3072" y="1317" width="37" height="36"/></clipPath><clipPath id="clip6"><rect x="2961" y="1317" width="149" height="36"/></clipPath><clipPath id="clip7"><rect x="2900" y="1317" width="63" height="40"/></clipPath><clipPath id="clip8"><rect x="2900" y="1317" width="63" height="37"/></clipPath><clipPath id="clip9"><rect x="2856" y="1317" width="156" height="37"/></clipPath><clipPath id="clip10"><rect x="2758" y="1320" width="44" height="37"/></clipPath><clipPath id="clip11"><rect x="2761" y="1320" width="41" height="36"/></clipPath><clipPath id="clip12"><rect x="2761" y="1320" width="148" height="36"/></clipPath></defs><g clip-path="url(#clip0)" transform="translate(-359 -1286)"><rect x="361.5" y="1288.5" width="2785" height="76" stroke="#FFFFFF" stroke-width="4.58333" stroke-miterlimit="8" fill="#FFFFFF"/><text font-family="Calibri,Calibri_MSFontService,sans-serif" font-weight="400" font-size="48" transform="matrix(1 0 0 1 443.446 1351)">MINGW64:/c/Users/<tspan font-size="48" x="404.479" y="0">javad</tspan></text><g clip-path="url(#clip1)"><g clip-path="url(#clip2)"><g clip-path="url(#clip3)"><path d="M43.3399 36.8788 43.3399 42.5612 29.7068 28.9325 34.2346 24.4048 41.1123 31.287C40.9277 31.7839 40.8342 32.3099 40.8361 32.84 40.8308 34.554 41.8024 36.1213 43.3399 36.8788ZM47.5191 37.6983 49.6381 39.8173 47.5191 41.9408ZM60.4866 28.9778 52.2959 37.1595 49.5385 34.4111C49.7898 33.7365 49.8737 33.0109 49.783 32.2967 49.4979 30.1333 47.7104 28.481 45.5314 28.3666 44.9318 28.335 44.3322 28.4275 43.7701 28.6382L36.8878 21.7334 42.7196 15.9197C44.0196 14.6169 46.1296 14.6145 47.4324 15.9145 47.4341 15.9162 47.4359 15.918 47.4376 15.9197Z" fill="#FF8080" transform="matrix(1 0 0 1.00015 358.833 1285.38)"/><path d="M40.6323 47.7817 28.2443 60.1697 15.9514 47.9945C14.5052 46.4902 14.5233 44.1068 15.9921 42.6245L28.6699 29.9468 40.6323 41.9499C42.2396 43.5616 42.2396 46.17 40.6323 47.7817Z" fill="#80B3FF" transform="matrix(1 0 0 1.00015 358.833 1285.38)"/><path d="M47.5417 49.2577 47.5417 54.4602C49.0872 55.3796 49.8938 57.1664 49.5611 58.9336 49.2564 60.6567 47.9199 62.0131 46.2015 62.343 43.888 62.8486 41.6027 61.3829 41.0972 59.0694 40.6809 57.1644 41.6024 55.2185 43.3399 54.3334L43.3399 48.5831C43.3167 48.3341 43.096 48.1512 42.847 48.1744 42.7571 48.1828 42.6717 48.2179 42.6019 48.2752L29.6208 61.2518 42.9777 74.6088C44.2735 75.903 46.3727 75.903 47.6685 74.6088L60.2693 62.0306Z" fill="#FFE680" transform="matrix(1 0 0 1.00015 358.833 1285.38)"/><path d="M74.0474 48.651 62.0306 60.6723 49.0902 47.7319C47.5783 46.2186 47.5783 43.7666 49.0902 42.2533L50.5799 40.75 53.8806 44.0417C53.0232 46.3695 54.2152 48.9515 56.5429 49.8089 58.8707 50.6663 61.4527 49.4743 62.3101 47.1466 63.1675 44.8188 61.9755 42.2368 59.6478 41.3794 58.6457 41.0103 57.545 41.0103 56.5429 41.3794L53.2603 38.1013 61.6548 29.7113 74.0474 42.1084C75.8541 43.9053 75.862 46.8266 74.0651 48.6333 74.0592 48.6392 74.0533 48.6451 74.0474 48.651Z" fill="#8DD35F" transform="matrix(1 0 0 1.00015 358.833 1285.38)"/></g></g></g><g clip-path="url(#clip4)"><g clip-path="url(#clip5)"><g clip-path="url(#clip6)"><path d="M739.271 268.805 770.832 268.805 770.832 300.366 739.271 300.366Z" stroke="#000000" stroke-width="2.844" fill="none" fill-rule="evenodd" transform="matrix(1 0 0 1.00008 2279.78 1049.93)"/><path d="M683.227 284.585 714.789 284.585" stroke="#000000" stroke-width="2.844" stroke-linecap="square" fill="none" fill-rule="evenodd" transform="matrix(1 0 0 1.00008 2279.78 1049.93)"/><path d="M1421.9 471.769 1453.3 503.17" stroke="#000000" stroke-width="3.00526" stroke-linecap="round" fill="none" fill-rule="evenodd" transform="matrix(1 0 0 1.00008 1654.2 847.952)"/><path d="M1453.3 471.769 1421.9 503.17" stroke="#000000" stroke-width="3.00526" stroke-linecap="round" fill="none" fill-rule="evenodd" transform="matrix(1 0 0 1.00008 1654.2 847.952)"/></g></g></g><g clip-path="url(#clip7)"><g clip-path="url(#clip8)"><g clip-path="url(#clip9)"><path d="M722.76 262.801 753.617 262.801 753.617 293.658 722.76 293.658Z" stroke="#000000" stroke-width="2.78049" fill="none" fill-rule="evenodd" transform="matrix(1.07193 0 0 1 2142.03 1056.92)"/><path d="M667.969 278.23 698.825 278.23" stroke="#000000" stroke-width="2.78049" stroke-linecap="square" fill="none" fill-rule="evenodd" transform="matrix(1.07193 0 0 1 2142.03 1056.92)"/><path d="M1390.15 461.233 1420.84 491.932" stroke="#000000" stroke-width="2.93815" stroke-linecap="round" fill="none" fill-rule="evenodd" transform="matrix(1.07193 0 0 1 1486.42 859.465)"/><path d="M1420.84 461.233 1390.15 491.932" stroke="#000000" stroke-width="2.93815" stroke-linecap="round" fill="none" fill-rule="evenodd" transform="matrix(1.07193 0 0 1 1486.42 859.465)"/></g></g></g><g clip-path="url(#clip10)"><g clip-path="url(#clip11)"><g clip-path="url(#clip12)"><path d="M736.827 267.916 768.284 267.916 768.284 299.373 736.827 299.373Z" stroke="#000000" stroke-width="2.8346" fill="none" fill-rule="evenodd" transform="matrix(1 0 0 1.00339 2081.63 1052.93)"/><path d="M680.969 283.645 712.426 283.645" stroke="#000000" stroke-width="2.8346" stroke-linecap="square" fill="none" fill-rule="evenodd" transform="matrix(1 0 0 1.00339 2081.63 1052.93)"/><path d="M1417.2 470.21 1448.5 501.506" stroke="#000000" stroke-width="2.99533" stroke-linecap="round" fill="none" fill-rule="evenodd" transform="matrix(1 0 0 1.00339 1458.12 850.957)"/><path d="M1448.5 470.21 1417.2 501.506" stroke="#000000" stroke-width="2.99533" stroke-linecap="round" fill="none" fill-rule="evenodd" transform="matrix(1 0 0 1.00339 1458.12 850.957)"/></g></g></g></g></svg>